<svg xmlns="http://www.w3.org/2000/svg"  viewBox="0 0 48 48" width="480px" height="480px"><path d="M 10.5 6 C 7.4818182 6 5 8.4818182 5 11.5 L 5 30.300781 L 5 36.5 C 5 39.518182 7.4818182 42 10.5 42 L 18 42 A 1.50015 1.50015 0 1 0 18 39 L 10.5 39 C 9.1181818 39 8 37.881818 8 36.5 L 8 30.300781 L 8 19 L 40 19 L 40 23.5 L 40 36.5 C 40 37.881818 38.881818 39 37.5 39 L 26.404297 39 A 1.50015 1.50015 0 1 0 26.404297 42 L 37.5 42 C 40.518182 42 43 39.518182 43 36.5 L 43 23.5 L 43 17.746094 A 1.50015 1.50015 0 0 0 43 17.259766 L 43 11.5 C 43 8.4818182 40.518182 6 37.5 6 L 18.318359 6 A 1.50015 1.50015 0 1 0 18.318359 9 L 37.5 9 C 38.881818 9 40 10.118182 40 11.5 L 40 16 L 8 16 L 8 11.5 C 8 10.118182 9.1181818 9 10.5 9 L 11.5 9 A 1.50015 1.50015 0 1 0 11.5 6 L 10.5 6 z M 31.5 11 A 1.5 1.5 0 0 0 31.5 14 A 1.5 1.5 0 0 0 31.5 11 z M 36.5 11 A 1.5 1.5 0 0 0 36.5 14 A 1.5 1.5 0 0 0 36.5 11 z M 16 23 C 13.519 23 11.5 25.019 11.5 27.5 L 11.5 30.5 C 11.5 32.981 13.519 35 16 35 C 18.481 35 20.5 32.981 20.5 30.5 L 20.5 27.5 C 20.5 25.019 18.481 23 16 23 z M 26.646484 23.001953 C 26.548531 23.010188 26.450719 23.0305 26.355469 23.0625 L 23.355469 24.0625 C 22.700469 24.2815 22.346453 24.989531 22.564453 25.644531 C 22.783453 26.298531 23.490484 26.651547 24.146484 26.435547 L 25.5 25.984375 L 25.5 33.75 C 25.5 34.44 26.06 35 26.75 35 C 27.44 35 28 34.44 28 33.75 L 28 24.25 C 28 23.848 27.806469 23.470375 27.480469 23.234375 C 27.235969 23.058125 26.940344 22.97725 26.646484 23.001953 z M 34.646484 23.001953 C 34.548531 23.010188 34.450719 23.0305 34.355469 23.0625 L 31.355469 24.0625 C 30.700469 24.2815 30.346453 24.989531 30.564453 25.644531 C 30.783453 26.298531 31.490484 26.651547 32.146484 26.435547 L 33.5 25.984375 L 33.5 33.75 C 33.5 34.44 34.06 35 34.75 35 C 35.44 35 36 34.44 36 33.75 L 36 24.25 C 36 23.848 35.806469 23.470375 35.480469 23.234375 C 35.235969 23.058125 34.940344 22.97725 34.646484 23.001953 z M 16 25.5 C 17.103 25.5 18 26.397 18 27.5 L 18 30.5 C 18 31.603 17.103 32.5 16 32.5 C 14.897 32.5 14 31.603 14 30.5 L 14 27.5 C 14 26.397 14.897 25.5 16 25.5 z"/></svg>