<svg xmlns="http://www.w3.org/2000/svg"  viewBox="0 0 64 64" width="512px" height="512px"><path d="M 7 8 C 5.347656 8 4 9.347656 4 11 L 4 53 C 4 54.652344 5.347656 56 7 56 L 57 56 C 58.652344 56 60 54.652344 60 53 L 60 11 C 60 9.347656 58.652344 8 57 8 Z M 7 10 L 57 10 C 57.550781 10 58 10.449219 58 11 L 58 53 C 58 53.550781 57.550781 54 57 54 L 7 54 C 6.449219 54 6 53.550781 6 53 L 6 20 L 47 20 C 47.550781 20 48 19.554688 48 19 C 48 18.445313 47.550781 18 47 18 L 6 18 L 6 11 C 6 10.449219 6.449219 10 7 10 Z M 10 12 C 9.449219 12 9 12.445313 9 13 L 9 15 C 9 15.554688 9.449219 16 10 16 C 10.550781 16 11 15.554688 11 15 L 11 13 C 11 12.445313 10.550781 12 10 12 Z M 15 12 C 14.449219 12 14 12.445313 14 13 L 14 15 C 14 15.554688 14.449219 16 15 16 C 15.550781 16 16 15.554688 16 15 L 16 13 C 16 12.445313 15.550781 12 15 12 Z M 20 12 C 19.449219 12 19 12.445313 19 13 L 19 15 C 19 15.554688 19.449219 16 20 16 C 20.550781 16 21 15.554688 21 15 L 21 13 C 21 12.445313 20.550781 12 20 12 Z M 25 12 C 24.449219 12 24 12.445313 24 13 L 24 15 C 24 15.554688 24.449219 16 25 16 C 25.550781 16 26 15.554688 26 15 L 26 13 C 26 12.445313 25.550781 12 25 12 Z M 30 12 C 29.449219 12 29 12.445313 29 13 L 29 15 C 29 15.554688 29.449219 16 30 16 C 30.550781 16 31 15.554688 31 15 L 31 13 C 31 12.445313 30.550781 12 30 12 Z M 35 12 C 34.449219 12 34 12.445313 34 13 L 34 15 C 34 15.554688 34.449219 16 35 16 C 35.550781 16 36 15.554688 36 15 L 36 13 C 36 12.445313 35.550781 12 35 12 Z M 40 12 C 39.449219 12 39 12.445313 39 13 L 39 15 C 39 15.554688 39.449219 16 40 16 C 40.550781 16 41 15.554688 41 15 L 41 13 C 41 12.445313 40.550781 12 40 12 Z M 45 12 C 44.449219 12 44 12.445313 44 13 L 44 15 C 44 15.554688 44.449219 16 45 16 C 45.550781 16 46 15.554688 46 15 L 46 13 C 46 12.445313 45.550781 12 45 12 Z M 50 12 C 49.449219 12 49 12.445313 49 13 L 49 15 C 49 15.554688 49.449219 16 50 16 C 50.550781 16 51 15.554688 51 15 L 51 13 C 51 12.445313 50.550781 12 50 12 Z M 55 12 C 54.449219 12 54 12.445313 54 13 L 54 15 C 54 15.554688 54.449219 16 55 16 C 55.550781 16 56 15.554688 56 15 L 56 13 C 56 12.445313 55.550781 12 55 12 Z M 51 18 C 50.449219 18 50 18.445313 50 19 C 50 19.554688 50.449219 20 51 20 L 55 20 C 55.550781 20 56 19.554688 56 19 C 56 18.445313 55.550781 18 55 18 Z M 14.953125 24 C 14.773438 24.007813 14.597656 24.066406 14.445313 24.167969 L 11.445313 26.167969 C 10.984375 26.476563 10.863281 27.09375 11.171875 27.554688 C 11.476563 28.015625 12.09375 28.136719 12.558594 27.832031 L 14 26.867188 L 14 35 C 14 35.554688 14.449219 36 15 36 C 15.550781 36 16 35.554688 16 35 L 16 25 C 16 24.632813 15.796875 24.292969 15.472656 24.117188 C 15.3125 24.03125 15.132813 23.992188 14.953125 24 Z M 23 24 C 21.347656 24 20 25.347656 20 27 L 20 33 C 20 34.652344 21.347656 36 23 36 L 25 36 C 26.652344 36 28 34.652344 28 33 L 28 27 C 28 25.347656 26.652344 24 25 24 Z M 34.953125 24 C 34.777344 24.007813 34.597656 24.066406 34.445313 24.167969 L 31.445313 26.167969 C 30.984375 26.476563 30.863281 27.09375 31.171875 27.554688 C 31.476563 28.015625 32.09375 28.136719 32.558594 27.832031 L 34 26.867188 L 34 35 C 34 35.554688 34.449219 36 35 36 C 35.550781 36 36 35.554688 36 35 L 36 25 C 36 24.632813 35.796875 24.292969 35.472656 24.117188 C 35.308594 24.03125 35.128906 23.992188 34.953125 24 Z M 43 24 C 41.347656 24 40 25.347656 40 27 L 40 33 C 40 34.652344 41.347656 36 43 36 L 45 36 C 46.652344 36 48 34.652344 48 33 L 48 27 C 48 25.347656 46.652344 24 45 24 Z M 23 26 L 25 26 C 25.550781 26 26 26.449219 26 27 L 26 33 C 26 33.550781 25.550781 34 25 34 L 23 34 C 22.449219 34 22 33.550781 22 33 L 22 27 C 22 26.449219 22.449219 26 23 26 Z M 43 26 L 45 26 C 45.550781 26 46 26.449219 46 27 L 46 33 C 46 33.550781 45.550781 34 45 34 L 43 34 C 42.449219 34 42 33.550781 42 33 L 42 27 C 42 26.449219 42.449219 26 43 26 Z M 19 38 C 17.347656 38 16 39.347656 16 41 L 16 47 C 16 48.652344 17.347656 50 19 50 L 21 50 C 22.652344 50 24 48.652344 24 47 L 24 41 C 24 39.347656 22.652344 38 21 38 Z M 39 38 C 37.347656 38 36 39.347656 36 41 L 36 47 C 36 48.652344 37.347656 50 39 50 L 41 50 C 42.652344 50 44 48.652344 44 47 L 44 41 C 44 39.347656 42.652344 38 41 38 Z M 30.953125 38 C 30.773438 38.011719 30.597656 38.066406 30.445313 38.167969 L 27.445313 40.167969 C 26.984375 40.476563 26.863281 41.09375 27.171875 41.554688 C 27.476563 42.015625 28.09375 42.136719 28.558594 41.832031 L 30 40.867188 L 30 49 C 30 49.554688 30.449219 50 31 50 C 31.550781 50 32 49.554688 32 49 L 32 39 C 32 38.632813 31.796875 38.292969 31.472656 38.117188 C 31.308594 38.03125 31.128906 37.992188 30.953125 38 Z M 50.953125 38 C 50.773438 38.011719 50.597656 38.066406 50.445313 38.167969 L 47.445313 40.167969 C 46.984375 40.476563 46.863281 41.09375 47.171875 41.554688 C 47.476563 42.015625 48.09375 42.136719 48.558594 41.832031 L 50 40.867188 L 50 49 C 50 49.554688 50.449219 50 51 50 C 51.550781 50 52 49.554688 52 49 L 52 39 C 52 38.632813 51.796875 38.292969 51.472656 38.117188 C 51.308594 38.03125 51.128906 37.992188 50.953125 38 Z M 19 40 L 21 40 C 21.550781 40 22 40.449219 22 41 L 22 47 C 22 47.550781 21.550781 48 21 48 L 19 48 C 18.449219 48 18 47.550781 18 47 L 18 41 C 18 40.449219 18.449219 40 19 40 Z M 39 40 L 41 40 C 41.550781 40 42 40.449219 42 41 L 42 47 C 42 47.550781 41.550781 48 41 48 L 39 48 C 38.449219 48 38 47.550781 38 47 L 38 41 C 38 40.449219 38.449219 40 39 40 Z"/></svg>