<svg xmlns="http://www.w3.org/2000/svg"  viewBox="0 0 48 48" width="480px" height="480px"><path d="M 9 6 C 6.2504839 6 4 8.2504839 4 11 L 4 36 C 4 38.74997 6.2500302 41 9 41 L 39 41 C 41.74997 41 44 38.74997 44 36 L 44 14 A 1.0001 1.0001 0 0 0 43 13 L 9 13 A 1.0001 1.0001 0 1 0 9 15 L 42 15 L 42 36 C 42 37.67003 40.67003 39 39 39 L 9 39 C 7.3299698 39 6 37.67003 6 36 L 6 11 C 6 9.3315161 7.3315161 8 9 8 L 39 8 C 40.394573 8 41.550786 8.9396358 41.896484 10.210938 A 1.0001 1.0001 0 1 0 43.826172 9.6875 C 43.24787 7.5608012 41.297427 6 39 6 L 9 6 z M 20.544922 18.082031 C 18.704922 18.082031 17.519531 19.390672 17.519531 21.638672 C 17.519531 23.872672 18.689922 25.222656 20.544922 25.222656 C 22.399922 25.222656 23.564453 23.862813 23.564453 21.632812 C 23.564453 19.384813 22.386922 18.082031 20.544922 18.082031 z M 13.335938 18.15625 C 12.951937 18.15625 12.610797 18.195031 12.216797 18.457031 L 10.988281 19.277344 C 10.725281 19.455344 10.613281 19.679078 10.613281 19.955078 C 10.613281 20.349078 10.899531 20.626953 11.269531 20.626953 C 11.457531 20.626953 11.564422 20.589656 11.732422 20.472656 L 12.449219 19.974609 L 12.488281 19.974609 L 12.488281 24.171875 C 12.488281 24.767875 12.886422 25.151391 13.482422 25.150391 C 14.077422 25.150391 14.474609 24.767875 14.474609 24.171875 L 14.474609 19.267578 C 14.474609 18.588578 14.052938 18.15625 13.335938 18.15625 z M 28.611328 18.15625 C 28.227328 18.15625 27.886187 18.195031 27.492188 18.457031 L 26.265625 19.277344 C 26.002625 19.455344 25.890625 19.679078 25.890625 19.955078 C 25.890625 20.349078 26.174922 20.626953 26.544922 20.626953 C 26.732922 20.626953 26.841766 20.589656 27.009766 20.472656 L 27.726562 19.974609 L 27.763672 19.974609 L 27.763672 24.171875 C 27.763672 24.767875 28.160813 25.151391 28.757812 25.150391 C 29.352812 25.150391 29.75 24.767875 29.75 24.171875 L 29.75 19.267578 C 29.75 18.588578 29.328328 18.15625 28.611328 18.15625 z M 35.347656 18.15625 C 34.963656 18.15625 34.620562 18.195031 34.226562 18.457031 L 33 19.277344 C 32.737 19.455344 32.625 19.679078 32.625 19.955078 C 32.625 20.349078 32.909297 20.626953 33.279297 20.626953 C 33.467297 20.626953 33.576141 20.589656 33.744141 20.472656 L 34.460938 19.974609 L 34.498047 19.974609 L 34.498047 24.171875 C 34.498047 24.767875 34.895187 25.151391 35.492188 25.150391 C 36.087187 25.150391 36.486328 24.767875 36.486328 24.171875 L 36.486328 19.267578 C 36.486328 18.588578 36.064656 18.15625 35.347656 18.15625 z M 20.544922 19.609375 C 21.153922 19.609375 21.542969 20.219672 21.542969 21.638672 C 21.542969 23.053672 21.153922 23.694312 20.544922 23.695312 C 19.936922 23.695312 19.542969 23.053672 19.542969 21.638672 C 19.542969 20.219672 19.936922 19.609375 20.544922 19.609375 z M 12.90625 28.882812 C 11.06625 28.882812 9.8808594 30.1895 9.8808594 32.4375 C 9.8808594 34.6715 11.05225 36.020484 12.90625 36.021484 C 14.76125 36.021484 15.927734 34.663594 15.927734 32.433594 C 15.927734 30.185594 14.74825 28.882812 12.90625 28.882812 z M 34.917969 28.882812 C 33.077969 28.882812 31.892578 30.1895 31.892578 32.4375 C 31.892578 34.6715 33.062969 36.020484 34.917969 36.021484 C 36.772969 36.021484 37.9375 34.663594 37.9375 32.433594 C 37.9375 30.185594 36.759969 28.882812 34.917969 28.882812 z M 20.974609 28.957031 C 20.590609 28.957031 20.247516 28.995812 19.853516 29.257812 L 18.626953 30.076172 C 18.363953 30.254172 18.251953 30.479859 18.251953 30.755859 C 18.251953 31.149859 18.53625 31.425781 18.90625 31.425781 C 19.09425 31.425781 19.203094 31.388484 19.371094 31.271484 L 20.087891 30.775391 L 20.126953 30.775391 L 20.126953 34.972656 C 20.126953 35.567656 20.522141 35.950219 21.119141 35.949219 C 21.714141 35.949219 22.113281 35.566703 22.113281 34.970703 L 22.113281 30.066406 C 22.113281 29.388406 21.691609 28.957031 20.974609 28.957031 z M 27.708984 28.957031 C 27.324984 28.957031 26.983844 28.995812 26.589844 29.257812 L 25.361328 30.076172 C 25.098328 30.254172 24.986328 30.479859 24.986328 30.755859 C 24.986328 31.149859 25.272578 31.425781 25.642578 31.425781 C 25.830578 31.425781 25.937469 31.388484 26.105469 31.271484 L 26.822266 30.775391 L 26.861328 30.775391 L 26.861328 34.972656 C 26.861328 35.567656 27.259469 35.950219 27.855469 35.949219 C 28.450469 35.949219 28.847656 35.566703 28.847656 34.970703 L 28.847656 30.066406 C 28.847656 29.388406 28.425984 28.957031 27.708984 28.957031 z M 12.90625 30.410156 C 13.51525 30.410156 13.904297 31.0185 13.904297 32.4375 C 13.904297 33.8525 13.51625 34.493141 12.90625 34.494141 C 12.29825 34.494141 11.904297 33.8525 11.904297 32.4375 C 11.904297 31.0185 12.29825 30.410156 12.90625 30.410156 z M 34.917969 30.410156 C 35.526969 30.410156 35.914062 31.0185 35.914062 32.4375 C 35.914062 33.8525 35.526969 34.493141 34.917969 34.494141 C 34.309969 34.494141 33.914062 33.8525 33.914062 32.4375 C 33.914062 31.0185 34.309969 30.410156 34.917969 30.410156 z"/></svg>