<svg xmlns="http://www.w3.org/2000/svg"  viewBox="0 0 128 128" width="512px" height="512px"><path d="M 14 1 C 6.8 1 1 6.8 1 14 L 1 124 C 1 125.7 2.3 127 4 127 C 5.7 127 7 125.7 7 124 L 7 35 L 121 35 L 121 124 C 121 125.7 122.3 127 124 127 C 125.7 127 127 125.7 127 124 L 127 14 C 127 6.8 121.2 1 114 1 L 14 1 z M 14 7 L 114 7 C 117.9 7 121 10.1 121 14 L 121 29 L 7 29 L 7 14 C 7 10.1 10.1 7 14 7 z M 18 15 C 16.3 15 15 16.3 15 18 C 15 19.7 16.3 21 18 21 L 22 21 C 23.7 21 25 19.7 25 18 C 25 16.3 23.7 15 22 15 L 18 15 z M 34 15 C 32.3 15 31 16.3 31 18 C 31 19.7 32.3 21 34 21 L 38 21 C 39.7 21 41 19.7 41 18 C 41 16.3 39.7 15 38 15 L 34 15 z M 29 43 C 24 43 20 47 20 52 L 20 58 C 20 63 24 67 29 67 C 34 67 38 63 38 58 L 38 52 C 38 47 34 43 29 43 z M 46 43 C 44.3 43 43 44.3 43 46 C 43 47.7 44.3 49 46 49 L 49 49 L 49 61 L 46 61 C 44.3 61 43 62.3 43 64 C 43 65.7 44.3 67 46 67 L 58 67 C 59.7 67 61 65.7 61 64 C 61 62.3 59.7 61 58 61 L 55 61 L 55 46 C 55 44.3 53.7 43 52 43 L 46 43 z M 75 43 C 70 43 66 47 66 52 L 66 58 C 66 63 70 67 75 67 C 80 67 84 63 84 58 L 84 52 C 84 47 80 43 75 43 z M 98 43 C 93 43 89 47 89 52 L 89 58 C 89 63 93 67 98 67 C 103 67 107 63 107 58 L 107 52 C 107 47 103 43 98 43 z M 29 49 C 30.7 49 32 50.3 32 52 L 32 58 C 32 59.7 30.7 61 29 61 C 27.3 61 26 59.7 26 58 L 26 52 C 26 50.3 27.3 49 29 49 z M 75 49 C 76.7 49 78 50.3 78 52 L 78 58 C 78 59.7 76.7 61 75 61 C 73.3 61 72 59.7 72 58 L 72 52 C 72 50.3 73.3 49 75 49 z M 98 49 C 99.7 49 101 50.3 101 52 L 101 58 C 101 59.7 99.7 61 98 61 C 96.3 61 95 59.7 95 58 L 95 52 C 95 50.3 96.3 49 98 49 z M 24 73 C 22.3 73 21 74.3 21 76 C 21 77.7 22.3 79 24 79 L 27 79 L 27 91 L 24 91 C 22.3 91 21 92.3 21 94 C 21 95.7 22.3 97 24 97 L 36 97 C 37.7 97 39 95.7 39 94 C 39 92.3 37.7 91 36 91 L 33 91 L 33 76 C 33 74.3 31.7 73 30 73 L 24 73 z M 52 73 C 47 73 43 77 43 82 L 43 88 C 43 93 47 97 52 97 C 57 97 61 93 61 88 L 61 82 C 61 77 57 73 52 73 z M 75 73 C 70 73 66 77 66 82 L 66 88 C 66 93 70 97 75 97 C 80 97 84 93 84 88 L 84 82 C 84 77 80 73 75 73 z M 93 73 C 91.3 73 90 74.3 90 76 C 90 77.7 91.3 79 93 79 L 96 79 L 96 91 L 93 91 C 91.3 91 90 92.3 90 94 C 90 95.7 91.3 97 93 97 L 105 97 C 106.7 97 108 95.7 108 94 C 108 92.3 106.7 91 105 91 L 102 91 L 102 76 C 102 74.3 100.7 73 99 73 L 93 73 z M 52 79 C 53.7 79 55 80.3 55 82 L 55 88 C 55 89.7 53.7 91 52 91 C 50.3 91 49 89.7 49 88 L 49 82 C 49 80.3 50.3 79 52 79 z M 75 79 C 76.7 79 78 80.3 78 82 L 78 88 C 78 89.7 76.7 91 75 91 C 73.3 91 72 89.7 72 88 L 72 82 C 72 80.3 73.3 79 75 79 z M 29 103 C 24 103 20 107 20 112 L 20 118 C 20 123 24 127 29 127 C 34 127 38 123 38 118 L 38 112 C 38 107 34 103 29 103 z M 46 103 C 44.3 103 43 104.3 43 106 C 43 107.7 44.3 109 46 109 L 49 109 L 49 121 L 46 121 C 44.3 121 43 122.3 43 124 C 43 125.7 44.3 127 46 127 L 58 127 C 59.7 127 61 125.7 61 124 C 61 122.3 59.7 121 58 121 L 55 121 L 55 106 C 55 104.3 53.7 103 52 103 L 46 103 z M 75 103 C 70 103 66 107 66 112 L 66 118 C 66 123 70 127 75 127 C 80 127 84 123 84 118 L 84 112 C 84 107 80 103 75 103 z M 98 103 C 93 103 89 107 89 112 L 89 118 C 89 123 93 127 98 127 C 103 127 107 123 107 118 L 107 112 C 107 107 103 103 98 103 z M 29 109 C 30.7 109 32 110.3 32 112 L 32 118 C 32 119.7 30.7 121 29 121 C 27.3 121 26 119.7 26 118 L 26 112 C 26 110.3 27.3 109 29 109 z M 75 109 C 76.7 109 78 110.3 78 112 L 78 118 C 78 119.7 76.7 121 75 121 C 73.3 121 72 119.7 72 118 L 72 112 C 72 110.3 73.3 109 75 109 z M 98 109 C 99.7 109 101 110.3 101 112 L 101 118 C 101 119.7 99.7 121 98 121 C 96.3 121 95 119.7 95 118 L 95 112 C 95 110.3 96.3 109 98 109 z"/></svg>