<?xml version="1.0"?><svg xmlns="http://www.w3.org/2000/svg"  viewBox="0 0 128 128" width="512px" height="512px">    <path d="M 63.019531 0.98632812 C 62.749219 0.98789062 62.474219 1.0246094 62.199219 1.0996094 C 61.099219 1.3996094 60.299609 2.3007812 60.099609 3.3007812 L 37.800781 102.59961 C 36.500781 108.59961 37.899219 114.7 41.699219 119.5 C 42.099219 120 42.6 120.5 43 121 L 13.699219 121 C 11.099219 121 9 118.90078 9 116.30078 C 9 114.90078 9.6007812 113.49961 10.800781 112.59961 C 12.000781 111.69961 13.400781 111.39922 14.800781 111.69922 L 26.699219 114.5 C 28.299219 114.9 29.900781 113.90078 30.300781 112.30078 C 30.700781 110.70078 29.699609 109.09922 28.099609 108.69922 L 16.199219 105.90039 C 12.999219 105.20039 9.6996094 105.9 7.0996094 108 C 4.4996094 110 3.0996094 113.10039 3.0996094 116.40039 C 2.9996094 122.20039 7.7992188 127 13.699219 127 L 57.199219 127 L 59 127 C 60.7 127 62 125.7 62 124 C 62 122.3 60.7 121 59 121 L 57.199219 121 C 52.899219 121 48.900781 119.09922 46.300781 115.69922 C 43.600781 112.39922 42.599609 108.10039 43.599609 103.90039 L 64.699219 9.9003906 L 65.199219 10.400391 C 69.399219 14.700391 75 17 81 17 C 87 17 92.600781 14.7 96.800781 10.5 L 97.300781 10 L 118.40039 104 C 119.30039 108.2 118.29922 112.50078 115.69922 115.80078 C 112.99922 119.10078 109.00078 121.09961 104.80078 121.09961 L 104 121.09961 C 102.3 121.09961 101 122.39961 101 124.09961 C 101 125.79961 102.3 127.09961 104 127.09961 L 104.80078 127.09961 C 110.90078 127.09961 116.60039 124.39961 120.40039 119.59961 C 124.20039 114.79961 125.60078 108.69922 124.30078 102.69922 L 101.90039 3.3007812 C 101.70039 2.2007812 100.90078 1.3996094 99.800781 1.0996094 C 98.800781 0.79960937 97.600781 1.1003906 96.800781 1.9003906 L 92.5 6.1992188 C 89.5 9.2992188 85.4 11 81 11 C 76.6 11 72.5 9.2992188 69.5 6.1992188 L 65.199219 1.9003906 C 64.599219 1.3003906 63.830469 0.98164063 63.019531 0.98632812 z M 71 31 A 3 3 0 0 0 68 34 A 3 3 0 0 0 71 37 A 3 3 0 0 0 74 34 A 3 3 0 0 0 71 31 z M 91 31 A 3 3 0 0 0 88 34 A 3 3 0 0 0 91 37 A 3 3 0 0 0 94 34 A 3 3 0 0 0 91 31 z M 58.998047 71.019531 C 58.800586 71.024414 58.600391 71.049609 58.400391 71.099609 C 56.800391 71.399609 55.7 72.999609 56 74.599609 L 65 119.69922 C 65.8 123.89922 69.600391 127 73.900391 127 L 74.900391 127 C 77.200391 127 79.300391 126.09922 80.900391 124.69922 C 82.500391 126.09922 84.600391 127 86.900391 127 C 91.200391 127 94.900781 123.89922 95.800781 119.69922 L 104.80078 74.599609 C 105.10078 72.999609 104.10039 71.399609 102.40039 71.099609 C 100.80039 70.799609 99.200391 71.8 98.900391 73.5 L 89.900391 118.59961 C 89.600391 119.99961 88.400391 121 86.900391 121 C 85.200391 121 83.900391 119.6 83.900391 118 L 83.900391 84 C 83.900391 82.3 82.600391 81 80.900391 81 C 79.200391 81 77.900391 82.3 77.900391 84 L 77.900391 118 C 77.900391 119.7 76.500391 121 74.900391 121 L 73.900391 121 C 72.500391 121 71.200391 119.99961 70.900391 118.59961 L 61.900391 73.5 C 61.637891 72.0125 60.380273 70.985352 58.998047 71.019531 z"/></svg>