<?xml version="1.0"?><svg xmlns="http://www.w3.org/2000/svg"  viewBox="0 0 128 128" width="512px" height="512px">    <path d="M 99.855469 50.941406 C 99.119531 50.974219 98.425391 51.275781 97.900391 51.800781 L 93.599609 56.099609 C 90.499609 59.299609 86.4 61 82 61 C 77.6 61 73.5 59.299219 70.5 56.199219 L 66.199219 51.900391 C 65.499219 51.200391 64.4 50.899609 63.5 51.099609 C 62.5 51.299609 61.700781 52 61.300781 53 L 41.5 104.30078 C 39.5 109.40078 40.200781 115.20078 43.300781 119.80078 C 43.600781 120.20078 43.900781 120.69961 44.300781 121.09961 L 14.699219 121.09961 C 12.099219 121.09961 10 119.00039 10 116.40039 C 10 115.00039 10.600781 113.59922 11.800781 112.69922 C 12.900781 111.79922 14.400781 111.50078 15.800781 111.80078 L 30.300781 115 C 31.900781 115.4 33.500391 114.29922 33.900391 112.69922 C 34.300391 111.09922 33.199609 109.49961 31.599609 109.09961 L 17.199219 105.90039 C 13.999219 105.20039 10.699609 105.9 8.0996094 108 C 5.4996094 110 4.0996094 113.10039 4.0996094 116.40039 C 3.9996094 122.20039 8.7992188 127 14.699219 127 L 57 127 C 58.7 127 60 125.7 60 124 C 60 122.3 58.7 121 57 121 C 53.4 121 50.199219 119.30078 48.199219 116.30078 C 46.199219 113.30078 45.7 109.70039 47 106.40039 L 65.099609 59.400391 L 66.199219 60.5 C 70.399219 64.7 76 67 82 67 C 88 67 93.600781 64.7 97.800781 60.5 L 98.900391 59.400391 L 117 106.40039 C 118.3 109.70039 117.90078 113.40078 115.80078 116.30078 C 113.70078 119.20078 110.5 121 107 121 L 99.599609 121 C 98.299609 116.7 94.3 113.5 89.5 113.5 C 86.6 113.5 83.9 114.69922 82 116.69922 L 81.900391 116.59961 C 79.900391 114.59961 77.3 113.5 74.5 113.5 C 71.7 113.5 69.099609 114.59961 67.099609 116.59961 C 65.099609 118.59961 64 121.2 64 124 C 64 125.7 65.3 127 67 127 C 68.7 127 70 125.7 70 124 C 70 122.8 70.500781 121.70078 71.300781 120.80078 C 72.100781 119.90078 73.3 119.5 74.5 119.5 C 75.7 119.5 76.799219 120.00078 77.699219 120.80078 C 78.499219 121.60078 79 122.70039 79 123.90039 L 79 124 L 79 124.19922 C 79.1 125.79922 80.499609 127.1 82.099609 127 C 83.699609 127 85 125.6 85 124 L 85 123.90039 C 85 121.50039 87 119.5 89.5 119.5 C 92 119.5 94 121.5 94 124 C 94 125.7 95.3 127 97 127 L 107 127 C 112.5 127 117.70078 124.29922 120.80078 119.69922 C 123.90078 115.19922 124.59961 109.39922 122.59961 104.19922 L 102.80078 52.900391 C 102.40078 52.000391 101.59961 51.3 100.59961 51 C 100.34961 50.95 100.10078 50.930469 99.855469 50.941406 z M 72 81 A 3 3 0 0 0 69 84 A 3 3 0 0 0 72 87 A 3 3 0 0 0 75 84 A 3 3 0 0 0 72 81 z M 92 81 A 3 3 0 0 0 89 84 A 3 3 0 0 0 92 87 A 3 3 0 0 0 95 84 A 3 3 0 0 0 92 81 z"/></svg>