<svg xmlns="http://www.w3.org/2000/svg"  viewBox="0 0 50 50" width="500px" height="500px"><path d="M 2.90625 1.96875 C 2.863281 1.976563 2.820313 1.988281 2.78125 2 C 2.316406 2.105469 1.988281 2.523438 2 3 L 2 47 C 2 47.550781 2.449219 48 3 48 L 47 48 C 47.359375 48.003906 47.695313 47.816406 47.878906 47.503906 C 48.058594 47.191406 48.058594 46.808594 47.878906 46.496094 C 47.695313 46.183594 47.359375 45.996094 47 46 L 44.875 46 C 44.574219 43.980469 43.363281 36.378906 41.15625 28 L 39.09375 28 C 40.910156 34.730469 42.140625 41.441406 42.8125 46 L 9.1875 46 C 9.859375 41.441406 11.089844 34.730469 12.90625 28 L 10.84375 28 C 8.636719 36.382813 7.425781 43.980469 7.125 46 L 4 46 L 4 27 C 4.550781 27 5 26.550781 5 26 C 5 25.449219 4.550781 25 4 25 L 4 3 C 4.011719 2.710938 3.894531 2.433594 3.6875 2.238281 C 3.476563 2.039063 3.191406 1.941406 2.90625 1.96875 Z M 26 4 C 20.664063 4 15.949219 10.738281 11.96875 24 L 14.0625 24 C 17.007813 14.40625 21.050781 6 26 6 C 30.949219 6 34.992188 14.40625 37.9375 24 L 40.03125 24 C 36.050781 10.738281 31.335938 4 26 4 Z M 7 25 C 6.449219 25 6 25.449219 6 26 C 6 26.550781 6.449219 27 7 27 C 7.550781 27 8 26.550781 8 26 C 8 25.449219 7.550781 25 7 25 Z M 10 25 C 9.449219 25 9 25.449219 9 26 C 9 26.550781 9.449219 27 10 27 C 10.550781 27 11 26.550781 11 26 C 11 25.449219 10.550781 25 10 25 Z M 13 25 C 12.449219 25 12 25.449219 12 26 C 12 26.550781 12.449219 27 13 27 C 13.550781 27 14 26.550781 14 26 C 14 25.449219 13.550781 25 13 25 Z M 16 25 C 15.449219 25 15 25.449219 15 26 C 15 26.550781 15.449219 27 16 27 C 16.550781 27 17 26.550781 17 26 C 17 25.449219 16.550781 25 16 25 Z M 19 25 C 18.449219 25 18 25.449219 18 26 C 18 26.550781 18.449219 27 19 27 C 19.550781 27 20 26.550781 20 26 C 20 25.449219 19.550781 25 19 25 Z M 22 25 C 21.449219 25 21 25.449219 21 26 C 21 26.550781 21.449219 27 22 27 C 22.550781 27 23 26.550781 23 26 C 23 25.449219 22.550781 25 22 25 Z M 25 25 C 24.449219 25 24 25.449219 24 26 C 24 26.550781 24.449219 27 25 27 C 25.550781 27 26 26.550781 26 26 C 26 25.449219 25.550781 25 25 25 Z M 28 25 C 27.449219 25 27 25.449219 27 26 C 27 26.550781 27.449219 27 28 27 C 28.550781 27 29 26.550781 29 26 C 29 25.449219 28.550781 25 28 25 Z M 31 25 C 30.449219 25 30 25.449219 30 26 C 30 26.550781 30.449219 27 31 27 C 31.550781 27 32 26.550781 32 26 C 32 25.449219 31.550781 25 31 25 Z M 34 25 C 33.449219 25 33 25.449219 33 26 C 33 26.550781 33.449219 27 34 27 C 34.550781 27 35 26.550781 35 26 C 35 25.449219 34.550781 25 34 25 Z M 37 25 C 36.449219 25 36 25.449219 36 26 C 36 26.550781 36.449219 27 37 27 C 37.550781 27 38 26.550781 38 26 C 38 25.449219 37.550781 25 37 25 Z M 40 25 C 39.449219 25 39 25.449219 39 26 C 39 26.550781 39.449219 27 40 27 C 40.550781 27 41 26.550781 41 26 C 41 25.449219 40.550781 25 40 25 Z M 43 25 C 42.449219 25 42 25.449219 42 26 C 42 26.550781 42.449219 27 43 27 C 43.550781 27 44 26.550781 44 26 C 44 25.449219 43.550781 25 43 25 Z M 46 25 C 45.449219 25 45 25.449219 45 26 C 45 26.550781 45.449219 27 46 27 C 46.550781 27 47 26.550781 47 26 C 47 25.449219 46.550781 25 46 25 Z"/></svg>