<?xml version="1.0"?><svg xmlns="http://www.w3.org/2000/svg"  viewBox="0 0 128 128" width="512px" height="512px">    <path d="M 103 20 C 98 20 94 24 94 29 C 94 34 98 38 103 38 C 104.7 38 106 36.7 106 35 L 106 23 C 106 21.3 104.7 20 103 20 z M 4 24 C 2.3 24 1 25.3 1 27 L 1 57 C 1 58.7 2.3 60 4 60 L 34 60 C 35.7 60 37 58.7 37 57 L 37 27 C 37 25.3 35.7 24 34 24 L 24 24 C 23.4 24 23 24.4 23 25 L 23 31 C 23 31.6 22.6 32 22 32 L 16 32 C 15.4 32 15 31.6 15 31 L 15 25 C 15 24.4 14.6 24 14 24 L 4 24 z M 74 36 C 72.3 36 71 37.3 71 39 C 71 40.7 72.3 42 74 42 L 84 42 L 84 106 L 66 106 L 66 69 L 66 62 C 66 57.6 62.4 54 58 54 L 43 54 C 41.3 54 40 55.3 40 57 C 40 58.7 41.3 60 43 60 L 58 60 C 59.1 60 60 60.9 60 62 L 60 66 L 4 66 C 2.3 66 1 67.3 1 69 C 1 70.7 2.3 72 4 72 L 26.599609 72 C 20.999609 79.3 12.000781 93.5 11.800781 109 C 11.800781 110.7 13.100781 112 14.800781 112 L 14.900391 112 L 20.199219 112 C 21.599219 120.5 29.000391 127 37.900391 127 C 46.800391 127 54.199609 120.5 55.599609 112 L 93.900391 112 C 102.40039 111.9 110.29922 107.8 115.19922 101 L 121.09961 92.699219 C 121.59961 91.999219 121.79961 91.100781 121.59961 90.300781 C 121.39961 89.500781 120.89922 88.800781 120.19922 88.300781 C 116.49922 86.200781 112.29961 85.099609 108.09961 85.099609 C 100.79961 85.099609 94.300391 88.300781 89.900391 93.300781 L 89.900391 42.599609 C 92.700391 43.699609 94.799219 46.200781 95.199219 49.300781 L 99 79.400391 C 99.2 81.000391 100.70078 82.2 102.30078 82 C 103.90078 81.8 105.10039 80.299219 104.90039 78.699219 L 101.09961 48.599609 C 100.29961 41.399609 94.2 36 87 36 L 74 36 z M 34.300781 72 L 60 72 L 60 106 L 18 106 C 19.5 90.1 31.100781 75.7 34.300781 72 z M 108.19922 91.199219 C 110.29922 91.199219 112.30078 91.599219 114.30078 92.199219 L 110.5 97.599609 C 106.8 102.79961 100.59961 105.99961 94.099609 106.09961 L 90.300781 106.09961 C 91.700781 97.599609 99.199219 91.199219 108.19922 91.199219 z M 122.30273 102.11328 C 122.10234 102.12129 121.89922 102.14922 121.69922 102.19922 C 120.09922 102.59922 119.09961 104.30039 119.59961 105.90039 C 119.99961 107.30039 120.10039 108.80078 119.90039 110.30078 C 119.50039 113.50078 118 116.30078 115.5 118.30078 C 113 120.30078 109.89922 121.20039 106.69922 120.90039 C 103.69922 120.60039 100.9 119.10078 99 116.80078 C 97.9 115.50078 96.000781 115.4 94.800781 116.5 C 93.500781 117.6 93.4 119.49922 94.5 120.69922 C 97.5 124.09922 101.59961 126.30078 106.09961 126.80078 C 106.79961 126.90078 107.49961 126.90039 108.09961 126.90039 C 112.19961 126.90039 116.10078 125.5 119.30078 123 C 123.10078 120 125.40039 115.70039 125.90039 110.90039 C 126.10039 108.70039 126.00039 106.40078 125.40039 104.30078 C 125.05039 102.98828 123.70547 102.05723 122.30273 102.11328 z M 26.400391 112 L 49.599609 112 C 48.299609 117.2 43.6 121 38 121 C 32.4 121 27.700391 117.2 26.400391 112 z"/></svg>