<svg xmlns="http://www.w3.org/2000/svg"  viewBox="0 0 50 50" width="500px" height="500px"><path d="M 7 2 L 7 48 L 18 48 L 18 46 L 9 46 L 9 4 L 29 4 L 29 16 L 41 16 L 41 29 L 43 29 L 43 14.585938 L 30.414062 2 L 7 2 z M 31 5.4140625 L 39.585938 14 L 31 14 L 31 5.4140625 z M 18 9 L 18 11.261719 C 16.356832 11.576386 15.145356 12.389366 14.623047 13.341797 C 13.987898 14.499991 14 15.646484 14 15.646484 C 14 17.196484 14.796514 18.406805 15.810547 19.160156 C 16.82458 19.913508 18.025391 20.340641 19.150391 20.759766 C 20.275391 21.178891 21.32458 21.591461 21.998047 22.091797 C 22.671514 22.592133 23 23.05 23 24 C 23 24 22.9935 24.724785 22.527344 25.470703 C 22.061145 26.216621 21.233333 27 19 27 C 16.833333 27 16.025274 26.06422 15.519531 25.052734 C 15.013788 24.041248 15 23 15 23 L 13 23 C 13 23 12.98621 24.458752 13.730469 25.947266 C 14.377506 27.241339 15.793165 28.528415 18 28.859375 L 18 31 L 20 31 L 20 28.771484 C 22.080752 28.48535 23.555658 27.596494 24.222656 26.529297 C 25.006457 25.275215 25 24 25 24 C 25 22.45 24.203486 21.23968 23.189453 20.486328 C 22.17542 19.732977 20.974609 19.305844 19.849609 18.886719 C 18.724609 18.467594 17.67542 18.056977 17.001953 17.556641 C 16.328486 17.056305 16 16.596484 16 15.646484 C 16 15.646484 16.0121 14.969993 16.376953 14.304688 C 16.741804 13.639381 17.303917 13 19 13 C 20.666667 13 21.224726 13.68578 21.605469 14.447266 C 21.986212 15.208752 22 16 22 16 L 24 16 C 24 16 24.01379 14.791248 23.394531 13.552734 C 22.884277 12.532226 21.665773 11.630908 20 11.285156 L 20 9 L 18 9 z M 42 31 C 39.970495 31 38.133318 31.284417 36.714844 31.791016 C 36.005606 32.044315 35.395724 32.348719 34.904297 32.763672 C 34.481505 33.120669 34.134625 33.619644 34.041016 34.210938 A 1.0001 1.0001 0 0 0 34 34.5 L 34 36.099609 C 33.769991 35.991569 33.542168 35.882806 33.285156 35.791016 C 31.866682 35.284417 30.029505 35 28 35 C 25.970495 35 24.133318 35.284417 22.714844 35.791016 C 22.005606 36.044315 21.395724 36.348719 20.904297 36.763672 C 20.481505 37.120669 20.134625 37.619644 20.041016 38.210938 A 1.0001 1.0001 0 0 0 20 38.5 L 20 46.5 C 20 47.223478 20.412853 47.821343 20.904297 48.236328 C 21.395741 48.651313 22.005599 48.955703 22.714844 49.208984 C 24.133333 49.715548 25.970518 50 28 50 C 30.029482 50 31.866667 49.715548 33.285156 49.208984 C 33.95075 48.971292 34.525191 48.685474 35 48.308594 C 35.474809 48.685474 36.04925 48.971292 36.714844 49.208984 C 38.133333 49.715548 39.970518 50 42 50 C 44.029482 50 45.866667 49.715548 47.285156 49.208984 C 47.994401 48.955703 48.604259 48.651313 49.095703 48.236328 C 49.587147 47.821343 50 47.223478 50 46.5 L 50 42.5 L 50 38.5 L 50 34.5 A 1.0001 1.0001 0 0 0 49.958984 34.203125 A 1.0001 1.0001 0 0 0 49.958984 34.201172 C 49.862985 33.614117 49.516222 33.118749 49.095703 32.763672 C 48.604276 32.348719 47.994394 32.044315 47.285156 31.791016 C 45.866682 31.284417 44.029505 31 42 31 z M 42 33 C 43.836491 33 45.498256 33.275605 46.613281 33.673828 C 47.170794 33.87294 47.587676 34.107776 47.804688 34.291016 C 48.021698 34.474255 48 34.533129 48 34.5 C 48 34.46687 48.0217 34.52575 47.804688 34.708984 C 47.587677 34.892224 47.170794 35.12706 46.613281 35.326172 C 45.498256 35.724395 43.836491 36 42 36 C 40.163509 36 38.501744 35.724395 37.386719 35.326172 C 36.829206 35.12706 36.412323 34.892224 36.195312 34.708984 C 35.978302 34.525745 36 34.466871 36 34.5 C 36 34.53313 35.9783 34.47425 36.195312 34.291016 C 36.412323 34.107776 36.829206 33.87294 37.386719 33.673828 C 38.501744 33.275605 40.163509 33 42 33 z M 36 36.900391 C 36.230009 37.008431 36.457832 37.117194 36.714844 37.208984 C 38.133318 37.715583 39.970495 38 42 38 C 44.029505 38 45.866682 37.715583 47.285156 37.208984 C 47.542168 37.117194 47.769991 37.008431 48 36.900391 L 48 38.5 C 48 38.46702 48.02168 38.52575 47.804688 38.708984 C 47.587694 38.892218 47.170787 39.127078 46.613281 39.326172 C 45.49827 39.724359 43.836518 40 42 40 C 40.163482 40 38.50173 39.724359 37.386719 39.326172 C 36.829213 39.127078 36.412306 38.892218 36.195312 38.708984 C 35.978319 38.525751 36 38.467022 36 38.5 L 36 36.900391 z M 28 37 C 29.836491 37 31.498256 37.275605 32.613281 37.673828 C 33.170794 37.87294 33.587677 38.107776 33.804688 38.291016 C 34.021698 38.474255 34 38.533129 34 38.5 C 34 38.46687 34.0217 38.52575 33.804688 38.708984 C 33.587677 38.892224 33.170794 39.12706 32.613281 39.326172 C 31.498256 39.724395 29.836491 40 28 40 C 26.163509 40 24.501744 39.724395 23.386719 39.326172 C 22.829206 39.12706 22.412323 38.892224 22.195312 38.708984 C 21.978302 38.525745 22 38.466871 22 38.5 C 22 38.53313 21.9783 38.47425 22.195312 38.291016 C 22.412323 38.107776 22.829206 37.87294 23.386719 37.673828 C 24.501744 37.275605 26.163509 37 28 37 z M 22 40.900391 C 22.230009 41.008431 22.457832 41.117194 22.714844 41.208984 C 24.133318 41.715583 25.970495 42 28 42 C 30.029505 42 31.866682 41.715583 33.285156 41.208984 C 33.542168 41.117194 33.769991 41.008431 34 40.900391 L 34 42.5 C 34 42.46702 34.02168 42.52575 33.804688 42.708984 C 33.587694 42.892218 33.170787 43.127078 32.613281 43.326172 C 31.49827 43.724359 29.836518 44 28 44 C 26.163482 44 24.50173 43.724359 23.386719 43.326172 C 22.829213 43.127078 22.412307 42.892218 22.195312 42.708984 C 21.978319 42.525751 22 42.467022 22 42.5 L 22 40.900391 z M 36 40.900391 C 36.230007 41.008428 36.457829 41.117201 36.714844 41.208984 C 38.133333 41.715548 39.970518 42 42 42 C 44.029482 42 45.866667 41.715548 47.285156 41.208984 C 47.542171 41.117201 47.769993 41.008428 48 40.900391 L 48 42.5 C 48 42.46702 48.02168 42.52575 47.804688 42.708984 C 47.587694 42.892218 47.170787 43.127078 46.613281 43.326172 C 45.49827 43.724359 43.836518 44 42 44 C 40.163482 44 38.50173 43.724359 37.386719 43.326172 C 36.829213 43.127078 36.412306 42.892218 36.195312 42.708984 C 35.978319 42.525751 36 42.467022 36 42.5 L 36 40.900391 z M 22 44.900391 C 22.230007 45.008428 22.457829 45.117201 22.714844 45.208984 C 24.133333 45.715548 25.970518 46 28 46 C 30.029482 46 31.866667 45.715548 33.285156 45.208984 C 33.542171 45.117201 33.769993 45.008428 34 44.900391 L 34 46.5 C 34 46.46702 34.02168 46.52575 33.804688 46.708984 C 33.587694 46.892218 33.170787 47.127078 32.613281 47.326172 C 31.49827 47.724359 29.836518 48 28 48 C 26.163482 48 24.50173 47.724359 23.386719 47.326172 C 22.829213 47.127078 22.412307 46.892218 22.195312 46.708984 C 21.978319 46.525751 22 46.467022 22 46.5 L 22 44.900391 z M 36 44.900391 C 36.230007 45.008428 36.457829 45.117201 36.714844 45.208984 C 38.133333 45.715548 39.970518 46 42 46 C 44.029482 46 45.866667 45.715548 47.285156 45.208984 C 47.542171 45.117201 47.769993 45.008428 48 44.900391 L 48 46.5 C 48 46.46702 48.02168 46.52575 47.804688 46.708984 C 47.587694 46.892218 47.170787 47.127078 46.613281 47.326172 C 45.49827 47.724359 43.836518 48 42 48 C 40.163482 48 38.50173 47.724359 37.386719 47.326172 C 36.829213 47.127078 36.412306 46.892218 36.195312 46.708984 C 35.978319 46.525751 36 46.467022 36 46.5 L 36 44.900391 z"/></svg>