<svg xmlns="http://www.w3.org/2000/svg"  viewBox="0 0 48 48" width="480px" height="480px"><path d="M 5.5332031 3.0507812 A 1.0001 1.0001 0 0 0 4.9199219 4.8359375 L 8.8066406 7.9824219 A 1.0001 1.0001 0 1 0 10.064453 6.4296875 L 6.1796875 3.28125 A 1.0001 1.0001 0 0 0 5.5332031 3.0507812 z M 42.435547 3.0507812 A 1.0001 1.0001 0 0 0 41.820312 3.28125 L 37.935547 6.4296875 A 1.0001 1.0001 0 1 0 39.193359 7.9824219 L 43.080078 4.8359375 A 1.0001 1.0001 0 0 0 42.435547 3.0507812 z M 24.310547 5.0097656 C 23.763762 4.997854 23.223188 5.0205359 22.689453 5.0761719 C 16.284641 5.7438032 11 11.131017 11 17.720703 C 11 22.030093 12.846232 24.437058 14.529297 26.611328 C 16.212362 28.785599 17.762367 30.768471 17.970703 35.048828 A 1.0001 1.0001 0 0 0 18 35.246094 L 18 40 C 18 42.749516 20.250484 45 23 45 L 25 45 C 27.749516 45 30 42.749516 30 40 L 30 39 A 1.0001 1.0001 0 1 0 28 39 L 28 40 C 28 41.668484 26.668484 43 25 43 L 23 43 C 21.331516 43 20 41.668484 20 40 L 20 35 A 1.0001 1.0001 0 0 0 19.917969 34.605469 C 19.60431 30.086127 17.757487 27.515266 16.111328 25.388672 C 14.419393 23.202942 13 21.491314 13 17.720703 C 13 10.356952 20.836484 4.6519889 28.525391 7.9492188 C 32.771637 9.770348 35.29497 14.004623 34.96875 18.625 C 34.736794 21.914349 33.313254 23.537511 31.675781 25.664062 C 30.164901 27.626212 28.58448 30.063927 28.166016 34 L 22.970703 34 A 1.0001 1.0001 0 1 0 22.970703 36 L 29.029297 36 A 1.0001 1.0001 0 0 0 30.029297 35.048828 C 30.229111 30.947897 31.660488 28.961714 33.259766 26.884766 C 34.859043 24.807817 36.691847 22.609276 36.962891 18.765625 C 37.346671 13.330002 34.332254 8.2641989 29.3125 6.1113281 C 27.64017 5.3941838 25.950901 5.0455005 24.310547 5.0097656 z M 2 18 A 1.0001 1.0001 0 1 0 2 20 L 7 20 A 1.0001 1.0001 0 1 0 7 18 L 2 18 z M 41 18 A 1.0001 1.0001 0 1 0 41 20 L 46 20 A 1.0001 1.0001 0 1 0 46 18 L 41 18 z M 9.421875 29.785156 A 1.0001 1.0001 0 0 0 8.8066406 30.017578 L 4.9199219 33.164062 A 1.0005079 1.0005079 0 1 0 6.1796875 34.71875 L 10.064453 31.570312 A 1.0001 1.0001 0 0 0 9.421875 29.785156 z M 38.548828 29.785156 A 1.0001 1.0001 0 0 0 37.935547 31.570312 L 41.820312 34.71875 A 1.000508 1.000508 0 0 0 43.080078 33.164062 L 39.193359 30.017578 A 1.0001 1.0001 0 0 0 38.548828 29.785156 z"/></svg>