<svg xmlns="http://www.w3.org/2000/svg"  viewBox="0 0 50 50" width="500px" height="500px"><path d="M 25 2 C 23.355469 2 22 3.355469 22 5 L 22 6.558594 C 20.640625 5.664063 19.054688 4.675781 17.21875 4.25 C 16.316406 4.039063 15.40625 3.980469 14.519531 4 C 13.636719 4.019531 12.78125 4.117188 11.980469 4.210938 C 11.265625 4.300781 10.613281 4.371094 10.019531 4.417969 L 10 4.375 L 9.980469 4.421875 C 9.253906 4.476563 8.628906 4.492188 8.226563 4.398438 C 7.6875 4.273438 7.152344 4.609375 7.023438 5.144531 C 6.898438 5.683594 7.234375 6.222656 7.773438 6.347656 C 8.214844 6.449219 8.671875 6.476563 9.132813 6.480469 L 1.921875 23.996094 L 2.070313 24.371094 C 2.070313 24.371094 4.332031 30 10 30 C 15.667969 30 17.925781 24.371094 17.925781 24.371094 L 18.078125 23.996094 L 10.816406 6.359375 C 11.28125 6.304688 11.738281 6.253906 12.21875 6.195313 C 13.785156 6.007813 15.390625 5.878906 16.765625 6.195313 C 18.550781 6.613281 20.320313 7.882813 22 8.949219 L 22 43 L 16 43 C 13.800781 43 12 44.800781 12 47 L 12 48 L 38 48 L 38 47 C 38 44.800781 36.199219 43 34 43 L 28 43 L 28 10.347656 C 29.941406 10.128906 32.023438 9.792969 33.765625 10.199219 C 35.175781 10.523438 36.5625 11.285156 37.886719 12.0625 C 38.390625 12.363281 38.875 12.648438 39.359375 12.925781 L 31.921875 30.996094 L 32.074219 31.371094 C 32.074219 31.371094 34.332031 37 40 37 C 45.667969 37 47.925781 31.371094 47.925781 31.371094 L 48.078125 30.996094 L 40.964844 13.710938 C 41.230469 13.8125 41.496094 13.910156 41.773438 13.972656 C 42.3125 14.101563 42.847656 13.765625 42.972656 13.226563 C 43.101563 12.6875 42.765625 12.152344 42.226563 12.027344 C 41.441406 11.84375 40.257813 11.140625 38.90625 10.34375 C 37.550781 9.542969 36 8.660156 34.21875 8.25 C 32.957031 7.953125 31.683594 7.953125 30.484375 8.046875 C 29.59375 8.117188 28.769531 8.230469 28 8.324219 L 28 5 C 28 3.355469 26.644531 2 25 2 Z M 25 4 C 25.5625 4 26 4.4375 26 5 L 26 43 L 24 43 L 24 5 C 24 4.4375 24.4375 4 25 4 Z M 10 9.625 L 15.503906 23 L 4.492188 23 Z M 40 16.625 L 45.503906 30 L 34.496094 30 Z M 4.714844 25 L 15.285156 25 C 14.488281 26.226563 12.859375 28 10 28 C 7.140625 28 5.511719 26.226563 4.714844 25 Z M 34.714844 32 L 45.285156 32 C 44.488281 33.226563 42.859375 35 40 35 C 37.140625 35 35.511719 33.226563 34.714844 32 Z M 16 45 L 34 45 C 34.722656 45 35.238281 45.4375 35.589844 46 L 14.410156 46 C 14.761719 45.4375 15.277344 45 16 45 Z"/></svg>