<?xml version="1.0"?><svg xmlns="http://www.w3.org/2000/svg"  viewBox="0 0 128 128" width="512px" height="512px">    <path d="M 64 6 C 62.3 6 61 7.3 61 9 L 61 11 L 24 11 C 22.9 11 21.800781 11.599219 21.300781 12.699219 L 8.8007812 37.699219 C 8.1007813 39.199219 8.6996094 40.999219 10.099609 41.699219 C 11.599609 42.399219 13.399609 41.800391 14.099609 40.400391 L 24 20.699219 L 39.099609 51 L 4 51 C 2.3 51 1 52.3 1 54 C 1 66.7 11.3 77 24 77 C 36.7 77 47 66.7 47 54 C 47 53.5 46.899219 52.999609 46.699219 52.599609 L 28.900391 17 L 61 17 L 61 112 C 61 113.7 62.3 115 64 115 L 84 115 C 85.7 115 87 113.7 87 112 C 87 110.3 85.7 109 84 109 L 67 109 L 67 17 L 99.099609 17 L 88.800781 37.699219 C 88.100781 39.199219 88.699609 40.999219 90.099609 41.699219 C 91.499609 42.399219 93.399609 41.800391 94.099609 40.400391 L 103.90039 20.800781 L 119.09961 51 L 84 51 C 82.3 51 81 52.3 81 54 C 81 66.7 91.3 77 104 77 C 116.7 77 127 66.7 127 54 C 127 53.5 126.89922 52.999609 126.69922 52.599609 L 106.69922 12.699219 C 106.19922 11.699219 105.2 11 104 11 L 67 11 L 67 9 C 67 7.3 65.7 6 64 6 z M 7.3007812 57 L 40.800781 57 C 39.300781 64.9 32.4 71 24 71 C 15.6 71 8.7007813 64.9 7.3007812 57 z M 87.300781 57 L 120.80078 57 C 119.30078 64.9 112.4 71 104 71 C 95.6 71 88.700781 64.9 87.300781 57 z M 24 121 C 22.3 121 21 122.3 21 124 C 21 125.7 22.3 127 24 127 L 104 127 C 105.7 127 107 125.7 107 124 C 107 122.3 105.7 121 104 121 L 24 121 z"/></svg>