<?xml version="1.0"?><svg xmlns="http://www.w3.org/2000/svg"  viewBox="0 0 128 128" width="512px" height="512px">    <path d="M114,51H41.8l69.8-18.7c0.8-0.2,1.4-0.7,1.8-1.4s0.5-1.5,0.3-2.3l-2.6-9.7c-1.9-6.9-9-11-15.9-9.2L22.7,29.2 C16,31,11.9,37.8,13.4,44.6C10.2,46.5,8,50,8,54c0,5,3.4,9.3,8,10.6V114c0,7.2,5.8,13,13,13h75c7.2,0,13-5.8,13-13V54 C117,52.3,115.7,51,114,51z M89.1,17.6l17.1,9.9l-10.9,2.9l-17.1-9.9L89.1,17.6z M60.2,25.4l17.1,9.9l-10.9,2.9l-17.1-9.9 L60.2,25.4z M24.3,35l6.9-1.9L48.3,43L37.4,46l-16.1-9.3C22.1,35.9,23.1,35.3,24.3,35z M19,59c-2.8,0-5-2.2-5-5s2.2-5,5-5 s5,2.2,5,5S21.8,59,19,59z M111,114c0,3.9-3.1,7-7,7H29c-3.9,0-7-3.1-7-7V73.8L38.8,57h11.3l-17,17h18.7l17-17h11.3l-17,17h18.7 l17-17h11.3l-17,17H111V114z"/></svg>