<svg xmlns="http://www.w3.org/2000/svg"  viewBox="0 0 68 68" width="272px" height="272px"><path d="M 39.300781 2 C 36.600781 2 34.300781 4.2003906 34.300781 6.9003906 C 34.300781 9.6003906 36.500781 11.900391 39.300781 11.900391 C 42.000781 11.900391 44.199219 9.7003906 44.199219 6.9003906 C 44.199219 4.1003906 42.000781 2 39.300781 2 z M 8.1992188 5.3007812 C 7.5992188 5.3007812 7.1992188 5.7007812 7.1992188 6.3007812 L 7.1992188 9.8007812 L 3.8007812 9.8007812 C 3.2007812 9.8007812 2.8007812 10.200781 2.8007812 10.800781 C 2.8007812 11.400781 3.2007812 11.800781 3.8007812 11.800781 L 7.1992188 11.800781 L 7.1992188 18.900391 L 3.8007812 18.900391 C 3.2007812 18.900391 2.8007812 19.300391 2.8007812 19.900391 C 2.8007812 20.500391 3.2007812 20.900391 3.8007812 20.900391 L 7.1992188 20.900391 L 7.1992188 28 L 3.8007812 28 C 3.2007812 28 2.8007812 28.4 2.8007812 29 C 2.8007812 29.6 3.2007812 30 3.8007812 30 L 7.1992188 30 L 7.1992188 37.099609 L 3.8007812 37.099609 C 3.2007812 37.099609 2.8007812 37.499609 2.8007812 38.099609 C 2.8007812 38.699609 3.2007812 39.099609 3.8007812 39.099609 L 7.1992188 39.099609 L 7.1992188 46.199219 L 3.8007812 46.199219 C 3.2007812 46.199219 2.8007812 46.599219 2.8007812 47.199219 C 2.8007812 47.799219 3.2007812 48.199219 3.8007812 48.199219 L 7.1992188 48.199219 L 7.1992188 55.300781 L 3.8007812 55.300781 C 3.2007812 55.300781 2.8007812 55.700781 2.8007812 56.300781 C 2.8007812 56.900781 3.2007812 57.300781 3.8007812 57.300781 L 7.1992188 57.300781 L 7.1992188 62.099609 C 7.1992188 62.699609 7.5992188 63.099609 8.1992188 63.099609 L 12.900391 63.099609 L 12.900391 65 C 12.900391 65.6 13.300391 66 13.900391 66 C 14.500391 66 14.900391 65.6 14.900391 65 L 14.900391 63.199219 L 18.699219 63.199219 L 18.699219 65 C 18.699219 65.6 19.099219 66 19.699219 66 C 20.299219 66 20.699219 65.6 20.699219 65 L 20.699219 63.199219 L 24.599609 63.199219 L 24.599609 65 C 24.599609 65.6 24.999609 66 25.599609 66 C 26.199609 66 26.599609 65.6 26.599609 65 L 26.599609 63.199219 L 30.400391 63.199219 L 30.400391 65 C 30.400391 65.6 30.800391 66 31.400391 66 C 32.000391 66 32.400391 65.6 32.400391 65 L 32.400391 63.199219 L 36.199219 63.199219 L 36.199219 65 C 36.199219 65.6 36.599219 66 37.199219 66 C 37.799219 66 38.199219 65.6 38.199219 65 L 38.199219 63.199219 L 42 63.199219 L 42 65 C 42 65.6 42.4 66 43 66 C 43.6 66 44 65.6 44 65 L 44 63.199219 L 47.800781 63.199219 L 47.800781 65 C 47.800781 65.6 48.200781 66 48.800781 66 C 49.400781 66 49.800781 65.6 49.800781 65 L 49.800781 63.199219 L 53.699219 63.199219 L 53.699219 65 C 53.699219 65.6 54.099219 66 54.699219 66 C 55.299219 66 55.699219 65.6 55.699219 65 L 55.699219 63.199219 L 59.5 63.199219 L 59.5 65 C 59.5 65.6 59.9 66 60.5 66 C 61.1 66 61.5 65.6 61.5 65 L 61.5 63.199219 L 64 63.199219 C 64.6 63.199219 65 62.799219 65 62.199219 C 65 61.599219 64.699219 61.199219 64.199219 61.199219 L 9.1992188 61.199219 L 9.1992188 6.3007812 C 9.1992188 5.7007813 8.7992187 5.3007812 8.1992188 5.3007812 z M 23.699219 11.300781 A 2.3 2.3 0 1 0 23.699219 15.900391 A 2.3 2.3 0 1 0 23.699219 11.300781 z M 56.900391 12.5 C 56.650391 12.5 56.399219 12.600781 56.199219 12.800781 L 19.199219 49.800781 C 18.799219 50.200781 18.799219 50.799219 19.199219 51.199219 C 19.599219 51.599219 20.199609 51.599219 20.599609 51.199219 L 57.599609 14.199219 C 57.999609 13.799219 57.999609 13.200781 57.599609 12.800781 C 57.399609 12.600781 57.150391 12.5 56.900391 12.5 z M 30 19 C 27 19 24.599609 21.400391 24.599609 24.400391 C 24.599609 27.400391 27.1 29.800781 30 29.800781 C 33 29.800781 35.400391 27.400391 35.400391 24.400391 C 35.400391 21.400391 33 19 30 19 z M 30.900391 21.199219 C 32.400391 21.599219 33.400391 22.900391 33.400391 24.400391 C 33.400391 26.000391 32.300391 27.299219 30.900391 27.699219 L 30.900391 21.199219 z M 16.800781 22.199219 C 14.900781 22.199219 13.400391 23.699609 13.400391 25.599609 C 13.400391 27.399609 15.000781 29 16.800781 29 C 18.700781 29 20.199219 27.499609 20.199219 25.599609 C 20.199219 23.699609 18.700781 22.199219 16.800781 22.199219 z M 59.300781 27 C 56.500781 27 54.300781 29.200391 54.300781 31.900391 C 54.300781 34.600391 56.500781 36.900391 59.300781 36.900391 C 62.000781 36.900391 64.199219 34.700391 64.199219 31.900391 C 64.199219 29.200391 62.000781 27 59.300781 27 z M 43.699219 36.300781 C 42.399219 36.200781 41.400391 37.299609 41.400391 38.599609 C 41.400391 39.899609 42.399219 40.900391 43.699219 40.900391 C 44.999219 40.900391 46 39.899609 46 38.599609 C 46 37.299609 44.999219 36.300781 43.699219 36.300781 z M 54.900391 43.5 C 51.900391 43.5 49.5 45.900391 49.5 48.900391 C 49.5 51.900391 51.900391 54.300781 54.900391 54.300781 C 57.900391 54.300781 60.300781 51.900391 60.300781 48.900391 C 60.300781 45.900391 57.900391 43.5 54.900391 43.5 z M 55.800781 45.699219 C 57.200781 46.099219 58.300781 47.4 58.300781 49 C 58.300781 50.6 57.200781 51.799219 55.800781 52.199219 L 55.800781 45.699219 z M 36.800781 47.099609 C 34.900781 47.099609 33.400391 48.6 33.400391 50.5 C 33.400391 52.4 34.900781 53.900391 36.800781 53.900391 C 38.700781 53.900391 40.199219 52.4 40.199219 50.5 C 40.199219 48.6 38.700781 47.099609 36.800781 47.099609 z"/></svg>