<svg xmlns="http://www.w3.org/2000/svg"  viewBox="0 0 80 80" width="480px" height="480px"><path d="M 40 11 A 1 1 0 0 0 39.900391 11.005859 C 37.506683 11.033573 35.405941 12.039174 33.671875 13.677734 C 31.913431 15.33933 30.47984 17.630305 29.21875 20.322266 C 26.696571 25.706187 24.866578 32.7375 23.033203 39.734375 C 21.199828 46.73125 19.363258 53.693295 16.96875 58.804688 C 15.771496 61.360383 14.434236 63.444213 12.953125 64.84375 C 11.472014 66.243287 9.8975092 66.974609 8 66.974609 A 1.0001 1.0001 0 1 0 8 68.974609 C 10.435741 68.974609 12.569681 67.958471 14.328125 66.296875 C 16.086569 64.635279 17.52016 62.344304 18.78125 59.652344 C 21.293543 54.289524 23.119139 47.29196 24.945312 40.322266 A 1 1 0 0 0 24.986328 40.164062 C 26.813052 33.192966 28.645469 26.262683 31.03125 21.169922 C 32.228504 18.614226 33.565764 16.53235 35.046875 15.132812 C 36.527986 13.733277 38.102491 13 40 13 C 41.890783 13 43.462595 13.748069 44.945312 15.181641 C 46.42803 16.615212 47.768447 18.748063 48.966797 21.359375 C 51.363496 26.581999 53.197625 33.67644 55.03125 40.761719 C 56.864875 47.846997 58.694545 54.923019 61.220703 60.248047 C 62.483782 62.910561 63.922292 65.148286 65.697266 66.720703 C 67.472239 68.29312 69.64131 69.169497 72.080078 68.972656 A 1.0002805 1.0002805 0 1 0 71.919922 66.978516 C 70.02544 67.131425 68.488017 66.520103 67.023438 65.222656 C 65.558856 63.92521 64.224562 61.910189 63.029297 59.390625 C 60.638767 54.351496 58.801875 47.345065 56.96875 40.261719 C 56.967918 40.258505 56.967629 40.255167 56.966797 40.251953 A 1 1 0 0 0 57 40 A 1 1 0 0 0 56.71875 39.306641 C 54.966933 32.539046 53.189666 25.769291 50.783203 20.525391 C 49.523209 17.77975 48.092773 15.442745 46.335938 13.744141 C 44.603349 12.06898 42.500025 11.034249 40.099609 11.005859 A 1 1 0 0 0 40 11 z M 40 15 A 1 1 0 0 0 39 16 A 1 1 0 0 0 40 17 A 1 1 0 0 0 41 16 A 1 1 0 0 0 40 15 z M 40 19 A 1 1 0 0 0 39 20 A 1 1 0 0 0 40 21 A 1 1 0 0 0 41 20 A 1 1 0 0 0 40 19 z M 40 23 A 1 1 0 0 0 39 24 A 1 1 0 0 0 40 25 A 1 1 0 0 0 41 24 A 1 1 0 0 0 40 23 z M 40 27 A 1 1 0 0 0 39 28 A 1 1 0 0 0 40 29 A 1 1 0 0 0 41 28 A 1 1 0 0 0 40 27 z M 40 31 A 1 1 0 0 0 39 32 A 1 1 0 0 0 40 33 A 1 1 0 0 0 41 32 A 1 1 0 0 0 40 31 z M 40 35 A 1 1 0 0 0 39 36 A 1 1 0 0 0 40 37 A 1 1 0 0 0 41 36 A 1 1 0 0 0 40 35 z M 8 39 A 1 1 0 0 0 7 40 A 1 1 0 0 0 8 41 A 1 1 0 0 0 9 40 A 1 1 0 0 0 8 39 z M 12 39 A 1 1 0 0 0 11 40 A 1 1 0 0 0 12 41 A 1 1 0 0 0 13 40 A 1 1 0 0 0 12 39 z M 16 39 A 1 1 0 0 0 15 40 A 1 1 0 0 0 16 41 A 1 1 0 0 0 17 40 A 1 1 0 0 0 16 39 z M 20 39 A 1 1 0 0 0 19 40 A 1 1 0 0 0 20 41 A 1 1 0 0 0 21 40 A 1 1 0 0 0 20 39 z M 28 39 A 1 1 0 0 0 27 40 A 1 1 0 0 0 28 41 A 1 1 0 0 0 29 40 A 1 1 0 0 0 28 39 z M 32 39 A 1 1 0 0 0 31 40 A 1 1 0 0 0 32 41 A 1 1 0 0 0 33 40 A 1 1 0 0 0 32 39 z M 36 39 A 1 1 0 0 0 35 40 A 1 1 0 0 0 36 41 A 1 1 0 0 0 37 40 A 1 1 0 0 0 36 39 z M 40 39 A 1 1 0 0 0 39 40 A 1 1 0 0 0 40 41 A 1 1 0 0 0 41 40 A 1 1 0 0 0 40 39 z M 44 39 A 1 1 0 0 0 43 40 A 1 1 0 0 0 44 41 A 1 1 0 0 0 45 40 A 1 1 0 0 0 44 39 z M 48 39 A 1 1 0 0 0 47 40 A 1 1 0 0 0 48 41 A 1 1 0 0 0 49 40 A 1 1 0 0 0 48 39 z M 52 39 A 1 1 0 0 0 51 40 A 1 1 0 0 0 52 41 A 1 1 0 0 0 53 40 A 1 1 0 0 0 52 39 z M 60 39 A 1 1 0 0 0 59 40 A 1 1 0 0 0 60 41 A 1 1 0 0 0 61 40 A 1 1 0 0 0 60 39 z M 64 39 A 1 1 0 0 0 63 40 A 1 1 0 0 0 64 41 A 1 1 0 0 0 65 40 A 1 1 0 0 0 64 39 z M 68 39 A 1 1 0 0 0 67 40 A 1 1 0 0 0 68 41 A 1 1 0 0 0 69 40 A 1 1 0 0 0 68 39 z M 72 39 A 1 1 0 0 0 71 40 A 1 1 0 0 0 72 41 A 1 1 0 0 0 73 40 A 1 1 0 0 0 72 39 z M 40 43 A 1 1 0 0 0 39 44 A 1 1 0 0 0 40 45 A 1 1 0 0 0 41 44 A 1 1 0 0 0 40 43 z M 40 47 A 1 1 0 0 0 39 48 A 1 1 0 0 0 40 49 A 1 1 0 0 0 41 48 A 1 1 0 0 0 40 47 z M 40 51 A 1 1 0 0 0 39 52 A 1 1 0 0 0 40 53 A 1 1 0 0 0 41 52 A 1 1 0 0 0 40 51 z M 40 55 A 1 1 0 0 0 39 56 A 1 1 0 0 0 40 57 A 1 1 0 0 0 41 56 A 1 1 0 0 0 40 55 z M 40 59 A 1 1 0 0 0 39 60 A 1 1 0 0 0 40 61 A 1 1 0 0 0 41 60 A 1 1 0 0 0 40 59 z M 40 63 A 1 1 0 0 0 39 64 A 1 1 0 0 0 40 65 A 1 1 0 0 0 41 64 A 1 1 0 0 0 40 63 z M 40 67 A 1 1 0 0 0 39 68 A 1 1 0 0 0 40 69 A 1 1 0 0 0 41 68 A 1 1 0 0 0 40 67 z"/></svg>