<svg class="gacn-block gacn-w-[93px] gacn-h-[31px] lg:gacn-w-[128px] lg:gacn-h-[43px]" width="128" height="43" viewBox="0 0 227 76" fill="none" xmlns="http://www.w3.org/2000/svg"><g clip-path="url(#clip0_99_3769)"><path d="M94.3968 4.19531C95.7489 4.19531 96.9207 4.38723 97.9122 4.78936C98.9037 5.18234 99.724 5.73069 100.373 6.43441C101.022 7.12899 101.482 7.96065 101.752 8.9294C102.022 9.88902 102.122 10.9309 102.031 12.0367L96.3348 13.042C96.3077 12.1373 96.1184 11.3878 95.7669 10.7938C95.4154 10.1997 94.9466 9.89816 94.3517 9.89816C93.9551 9.89816 93.6396 9.98041 93.4053 10.1358C93.1709 10.3003 92.9726 10.4922 92.8374 10.7298C92.6932 10.9583 92.603 11.2142 92.5399 11.4975C92.4859 11.7717 92.4588 12.0184 92.4588 12.2195V27.7378C92.4588 28.1491 92.558 28.5421 92.7563 28.9168C92.9546 29.3006 93.4143 29.4834 94.1444 29.4834C94.7033 29.4834 95.172 29.328 95.5325 29.0264C95.8931 28.7157 96.0824 28.3227 96.0824 27.8201V23.1408H94.0993V17.9315H101.95V27.5185C101.95 30.0318 101.283 31.9327 99.9673 33.2305C98.6423 34.5282 96.7764 35.1771 94.3607 35.1771C91.6566 35.1771 89.6826 34.5374 88.4477 33.2487C87.2128 31.9693 86.5908 30.0409 86.5908 27.4728V12.2012C86.5908 9.77935 87.2578 7.84184 88.6009 6.37957C89.9349 4.91731 91.8729 4.19531 94.4058 4.19531" fill="#222222"></path><path d="M104.455 34.9117V4.45996H118.219V10.1445H110.323V16.6151H117.227V22.3088H110.323V29.218H118.219V34.9117H104.455Z" fill="#222222"></path><path d="M131.162 18.8542V4.45996H136.904V34.9117H131.919L128.395 26.0284L126.33 20.2524H126.114V34.9117H120.246V4.45996H125.384L128.917 13.2975L130.945 18.8542H131.162Z" fill="#222222"></path><path d="M140.052 34.9117V4.45996H153.825V10.1445H145.929V16.6151H152.825V22.3088H145.929V29.218H153.825V34.9117H140.052Z" fill="#222222"></path><path d="M163.097 4.45996C164.332 4.45996 165.468 4.61533 166.505 4.91692C167.541 5.21851 168.434 5.73031 169.182 6.44316C169.93 7.15602 170.507 8.08821 170.93 9.23975C171.345 10.3913 171.552 11.7987 171.552 13.462C171.552 15.5366 171.282 17.2274 170.732 18.5343C170.182 19.8503 169.353 20.9013 168.226 21.6873L172.544 34.9025H166.55L163.007 23.049H161.845V34.9025H155.977V4.45996H163.097ZM161.845 10.1445V17.3188H162.755C163.188 17.3188 163.584 17.2639 163.963 17.1634C164.341 17.0629 164.675 16.8618 164.981 16.5694C165.279 16.2769 165.522 15.8931 165.693 15.4087C165.865 14.9243 165.955 14.2937 165.955 13.5077C165.955 12.3379 165.675 11.488 165.117 10.9488C164.558 10.4096 163.828 10.1445 162.935 10.1445H161.854H161.845Z" fill="#222222"></path><path d="M183.857 28.9621H179.458L178.556 34.9117H172.337L178.034 4.45996H185.2L190.941 34.9117H184.767L183.857 28.9621ZM180.882 18.5069L180.278 23.3598H183L182.441 18.5069L181.792 12.3379H181.531L180.882 18.5069Z" fill="#222222"></path><path d="M192.446 34.9117V4.45996H198.314V29.218H206.21V34.9117H192.446Z" fill="#222222"></path><path d="M96.2526 65.4191H91.8538L90.9434 71.3687H84.7329L90.4296 40.917H97.5956L103.337 71.3687H97.163L96.2526 65.4191ZM93.278 54.9639L92.6741 59.8168H95.3963L94.8374 54.9639L94.1884 48.795H93.927L93.278 54.9639Z" fill="#222222"></path><path d="M119.772 62.4028C119.772 63.8011 119.646 65.0714 119.403 66.2138C119.159 67.3471 118.745 68.325 118.15 69.1201C117.564 69.9243 116.762 70.5458 115.752 70.9754C114.743 71.414 113.481 71.6334 111.957 71.6334C110.578 71.6334 109.388 71.4232 108.397 71.0119C107.405 70.6006 106.594 70.034 105.981 69.312C105.359 68.59 104.909 67.7584 104.62 66.7987C104.332 65.8483 104.188 64.8247 104.188 63.7463L110.101 62.613C110.155 63.7189 110.326 64.5505 110.596 65.108C110.867 65.6655 111.372 65.9397 112.111 65.9397C112.534 65.9397 112.868 65.8391 113.111 65.6289C113.355 65.4279 113.535 65.1628 113.661 64.843C113.787 64.5231 113.877 64.1392 113.913 63.7097C113.958 63.271 113.977 62.8323 113.977 62.4028C113.977 61.7905 113.931 61.2787 113.85 60.8766C113.76 60.4653 113.616 60.118 113.4 59.8256C113.183 59.5331 112.886 59.2772 112.516 59.0579C112.138 58.8385 111.678 58.6101 111.137 58.3816C109.668 57.7692 108.487 57.1386 107.595 56.4806C106.702 55.8226 106.017 55.128 105.549 54.3786C105.071 53.6383 104.764 52.8524 104.62 52.0207C104.476 51.189 104.404 50.2843 104.404 49.2881C104.404 48.036 104.548 46.8754 104.836 45.8152C105.125 44.7551 105.576 43.8412 106.198 43.0826C106.82 42.324 107.622 41.73 108.613 41.2913C109.605 40.8526 110.804 40.6333 112.219 40.6333C113.715 40.6333 114.95 40.8709 115.933 41.3553C116.915 41.8397 117.681 42.452 118.24 43.1923C118.799 43.9325 119.196 44.7642 119.43 45.6598C119.655 46.5646 119.772 47.442 119.772 48.2828L113.986 49.5531C113.986 49.1145 113.968 48.7032 113.922 48.3285C113.877 47.9538 113.787 47.6065 113.643 47.3049C113.499 46.9942 113.309 46.7565 113.066 46.5829C112.823 46.4093 112.489 46.3179 112.066 46.3179C111.669 46.3179 111.353 46.4184 111.128 46.6012C110.903 46.7931 110.723 47.0216 110.596 47.3049C110.47 47.5791 110.38 47.8989 110.344 48.2462C110.299 48.5935 110.281 48.9317 110.281 49.2515C110.281 49.6628 110.308 50.0284 110.362 50.3482C110.416 50.6681 110.56 50.9788 110.795 51.2713C111.02 51.5637 111.363 51.8471 111.804 52.1212C112.246 52.3954 112.868 52.697 113.67 53.0169C115.04 53.5744 116.131 54.1593 116.933 54.7625C117.735 55.3748 118.339 56.0419 118.763 56.7731C119.177 57.5042 119.448 58.3267 119.583 59.2407C119.709 60.1637 119.772 61.2056 119.772 62.3663" fill="#222222"></path><path d="M137.122 62.4028C137.122 63.8011 136.996 65.0714 136.753 66.2138C136.51 67.3471 136.095 68.325 135.5 69.1201C134.914 69.9243 134.112 70.5458 133.102 70.9754C132.093 71.414 130.831 71.6334 129.308 71.6334C127.928 71.6334 126.739 71.4232 125.747 71.0119C124.756 70.6006 123.944 70.034 123.331 69.312C122.709 68.59 122.259 67.7584 121.97 66.7987C121.682 65.8483 121.538 64.8247 121.538 63.7463L127.451 62.613C127.505 63.7189 127.667 64.5505 127.937 65.108C128.208 65.6655 128.713 65.9397 129.452 65.9397C129.875 65.9397 130.209 65.8391 130.452 65.6289C130.696 65.4279 130.876 65.1628 131.002 64.843C131.128 64.5231 131.218 64.1392 131.254 63.7097C131.3 63.271 131.318 62.8323 131.318 62.4028C131.318 61.7905 131.273 61.2787 131.191 60.8766C131.101 60.4653 130.957 60.118 130.741 59.8256C130.524 59.5331 130.227 59.2772 129.857 59.0579C129.479 58.8385 129.019 58.6101 128.478 58.3816C127.009 57.7692 125.828 57.1386 124.936 56.4806C124.043 55.8226 123.358 55.128 122.89 54.3786C122.412 53.6383 122.105 52.8524 121.961 52.0207C121.817 51.189 121.745 50.2843 121.745 49.2881C121.745 48.036 121.889 46.8754 122.178 45.8152C122.466 44.7551 122.917 43.8412 123.539 43.0826C124.161 42.324 124.963 41.73 125.954 41.2913C126.946 40.8526 128.145 40.6333 129.56 40.6333C131.056 40.6333 132.291 40.8709 133.274 41.3553C134.256 41.8397 135.022 42.452 135.581 43.1923C136.14 43.9325 136.537 44.7642 136.771 45.6598C136.996 46.5646 137.113 47.442 137.113 48.2828L131.327 49.5531C131.327 49.1145 131.309 48.7032 131.264 48.3285C131.218 47.9538 131.128 47.6065 130.984 47.3049C130.84 46.9942 130.651 46.7565 130.407 46.5829C130.164 46.4093 129.83 46.3179 129.407 46.3179C129.01 46.3179 128.695 46.4184 128.469 46.6012C128.244 46.7931 128.064 47.0216 127.937 47.3049C127.811 47.5791 127.721 47.8989 127.685 48.2462C127.64 48.5935 127.622 48.9317 127.622 49.2515C127.622 49.6628 127.649 50.0284 127.703 50.3482C127.766 50.6681 127.901 50.9788 128.136 51.2713C128.361 51.5637 128.704 51.8471 129.145 52.1212C129.587 52.3954 130.209 52.697 131.011 53.0169C132.381 53.5744 133.472 54.1593 134.274 54.7625C135.076 55.3748 135.68 56.0419 136.104 56.7731C136.519 57.5042 136.789 58.3267 136.924 59.2407C137.05 60.1637 137.113 61.2056 137.113 62.3663" fill="#222222"></path><path d="M139.537 71.3687V40.917H153.301V46.6107H145.405V53.0812H152.31V58.7749H145.405V65.6842H153.301V71.3687H139.537Z" fill="#222222"></path><path d="M163.911 65.4191L162.658 61.5258L161.288 57.0202H161.072V71.3687H155.204V40.917H160.684L163.659 49.06L165.687 55.0919H165.948L168.021 48.9229L170.951 40.917H176.431V71.3687H170.563V57.1482H170.392L168.977 61.8823L167.814 65.4191H163.911Z" fill="#222222"></path><path d="M191.014 55.4483C191.708 55.6859 192.276 56.0149 192.718 56.4536C193.169 56.8923 193.52 57.3949 193.8 57.9615C194.07 58.5282 194.268 59.1496 194.385 59.8259C194.503 60.4931 194.557 61.1785 194.557 61.8823C194.557 65.1449 193.854 67.5485 192.438 69.0748C191.032 70.6102 188.932 71.3687 186.138 71.3687H179.495V40.917H186.273C188.95 40.917 190.951 41.6298 192.294 43.0647C193.628 44.4904 194.304 46.6107 194.304 49.4073C194.304 50.0196 194.241 50.6228 194.106 51.226C193.98 51.82 193.782 52.3867 193.52 52.9076C193.259 53.4377 192.925 53.9038 192.502 54.3059C192.087 54.7171 191.591 55.0187 191.014 55.2289V55.4483ZM188.68 49.5809C188.68 48.3837 188.463 47.5886 188.031 47.1956C187.598 46.8026 186.904 46.6016 185.958 46.6016H185.354V52.6426H186.084C187.814 52.6426 188.671 51.619 188.671 49.5809H188.68ZM188.932 61.4984C188.932 60.2646 188.725 59.4055 188.31 58.9029C187.896 58.4002 187.265 58.1535 186.435 58.1535H185.354V65.675H186.39C186.94 65.675 187.373 65.5653 187.706 65.346C188.04 65.1267 188.292 64.8251 188.481 64.4412C188.671 64.0574 188.788 63.6187 188.851 63.116C188.905 62.6134 188.941 62.0742 188.941 61.4893" fill="#222222"></path><path d="M197.666 71.3687V40.917H203.534V65.6842H211.43V71.3687H197.666Z" fill="#222222"></path><path d="M217.669 52.0302L218.733 46.9123L220.022 40.917H226.232L220.41 58.9851V71.3687H214.533V58.9851L208.665 40.917H214.92L216.38 47.0037L217.453 52.0302H217.669Z" fill="#222222"></path><path d="M32.9906 0C32.9906 2.54983 35.0277 4.61528 37.5426 4.61528C40.0574 4.61528 42.0946 2.54069 42.0946 0L47.7102 1.13326C46.7457 3.48202 47.8544 6.18722 50.1709 7.16511C52.4875 8.13386 55.1556 7.01888 56.111 4.67012L60.8794 7.89625C59.1036 9.69666 59.1036 12.6212 60.8794 14.4216C62.6551 16.222 65.5395 16.222 67.3152 14.4216L70.4971 19.2562C68.1715 20.2341 67.0719 22.9302 68.0363 25.2881C68.9918 27.646 71.6599 28.761 73.9764 27.7831L75.1032 33.4768C72.5883 33.4768 70.5512 35.5422 70.5512 38.0921C70.5512 40.6419 72.5973 42.7074 75.1032 42.7074L73.9855 48.4102C71.6599 47.4323 69.0008 48.5564 68.0363 50.9052C67.0719 53.254 68.1806 55.9592 70.4971 56.9279L67.3152 61.7625C65.5395 59.9621 62.6551 59.9621 60.8794 61.7625C59.1036 63.563 59.1036 66.4875 60.8794 68.2879L56.111 71.514C55.1556 69.1561 52.4875 68.0411 50.1709 69.019C47.8454 69.9969 46.7457 72.693 47.7102 75.0417L42.0946 76.175C42.0946 73.6252 40.0574 71.5597 37.5426 71.5597C35.0277 71.5597 32.9906 73.6252 32.9906 76.175L27.375 75.0417C28.3395 72.693 27.2398 69.9878 24.9142 69.019C22.5977 68.0411 19.9296 69.1561 18.9741 71.514L14.2058 68.2879C15.9815 66.4875 15.9815 63.563 14.2058 61.7625C12.4301 59.9621 9.55465 59.9621 7.77893 61.7625L4.59705 56.937C6.92262 55.9592 8.0223 53.2631 7.05782 50.9143C6.09334 48.5564 3.43427 47.4414 1.11771 48.4193L0 42.7165C2.51486 42.7165 4.54297 40.651 4.54297 38.1012C4.54297 35.5514 2.50584 33.4859 0 33.4859L1.11771 27.7922C3.43427 28.761 6.10236 27.646 7.05782 25.2881C8.0223 22.9393 6.9136 20.2341 4.59705 19.2654L7.77893 14.4308C9.55465 16.2312 12.4391 16.2312 14.2058 14.4308C15.9815 12.6303 15.9815 9.7058 14.2058 7.91452L18.9741 4.6884C19.9386 7.03716 22.5977 8.16128 24.9142 7.18339C27.2398 6.2055 28.3395 3.50944 27.375 1.16067L32.9906 0.0274175V0Z" fill="#E32128"></path><path d="M27.3689 15.5464C24.8 15.5464 22.8259 16.2958 21.4739 17.8038C20.1128 19.3026 19.4277 21.2949 19.4277 23.7899V52.688C19.4277 55.3292 20.0677 57.3124 21.3206 58.6284C22.5826 59.9536 24.5746 60.6116 27.3329 60.6116C29.7936 60.6116 31.6955 59.9445 33.0386 58.601C34.3817 57.2667 35.0577 55.3109 35.0577 52.7245V39.2534H27.7745V44.609H29.0906V53.0444C29.0906 53.5471 28.9103 53.9675 28.5317 54.2782C28.1621 54.5889 27.6934 54.7534 27.1165 54.7534C26.3774 54.7534 25.8997 54.5615 25.7014 54.1685C25.5031 53.7755 25.4039 53.3734 25.4039 52.953V23.7899C25.4039 23.5797 25.4309 23.333 25.494 23.0496C25.5481 22.7663 25.6563 22.5013 25.7915 22.2637C25.9357 22.0261 26.125 21.8159 26.3774 21.6514C26.6208 21.4868 26.9362 21.4046 27.3419 21.4046C27.3419 21.4046 27.396 21.4046 27.423 21.4046C27.8196 21.4046 28.1441 21.4868 28.3875 21.6514C28.6399 21.8159 28.8382 22.0169 28.9734 22.2637C29.1176 22.5013 29.2167 22.7663 29.2708 23.0496C29.3249 23.3421 29.361 23.5797 29.361 23.7899V30.5163H35.3371V23.7899C35.3371 21.2949 34.6521 19.3026 33.291 17.8038C31.9389 16.2958 29.9649 15.5464 27.3869 15.5464" fill="white"></path><path d="M49.821 15.8213H42.5378L36.7329 60.3473H43.0516L44.4127 49.5266H48.0182L49.3793 60.3473H55.6529L49.821 15.8213ZM46.2155 44.5457C44.3856 44.5457 42.9074 43.0286 42.9074 41.1459C42.9074 39.2633 44.3856 37.7462 46.2155 37.7462C48.0453 37.7462 49.5235 39.2633 49.5235 41.1459C49.5235 43.0286 48.0362 44.5457 46.2155 44.5457Z" fill="white"></path></g><defs><clipPath id="clip0_99_3769"><rect width="226.233" height="76" fill="white"></rect></clipPath></defs></svg>